<svg id="design" xmlns="http://www.w3.org/2000/svg" xmlns:xlink="http://www.w3.org/1999/xlink" viewBox="0 0 1171 300"><defs><style>.cls-1{fill:none;}.cls-2{fill:#e5f3fd;}.cls-3{fill:#ed8b00;}.cls-4{fill:#84524d;}.cls-5{fill:#efbc73;}.cls-6{fill:#fbb040;}.cls-19,.cls-7{fill:#fff;}.cls-8{fill:#05ced3;}.cls-9{fill:#01afbd;}.cls-10{fill:#21333a;}.cls-11{fill:#005eb8;}.cls-12{fill:#40484c;}.cls-13{fill:#e6d0be;}.cls-14{fill:#02355e;}.cls-15{fill:#c9e8ff;}.cls-16{clip-path:url(#clip-path);}.cls-17{clip-path:url(#clip-path-2);}.cls-18{fill:#bc8271;}.cls-19{stroke:#fff;stroke-miterlimit:10;}.cls-20{clip-path:url(#clip-path-3);}</style><clipPath id="clip-path"><ellipse class="cls-1" cx="622.11" cy="172.52" rx="21.99" ry="22.01"/></clipPath><clipPath id="clip-path-2"><path class="cls-1" d="M618.56,169.09a3.45,3.45,0,0,0-4.62.22A3.45,3.45,0,0,0,618.56,169.09Z"/></clipPath><clipPath id="clip-path-3"><rect class="cls-1" x="40.36" width="395.06" height="300"/></clipPath></defs><circle class="cls-2" cx="1033.78" cy="235.97" r="64.03"/><circle class="cls-2" cx="919.2" cy="113.23" r="90.76"/><circle class="cls-2" cx="672.56" cy="156.5" r="143.5"/><path class="cls-3" d="M627.09,229.26a.37.37,0,0,1-.35-.36V129.6a.35.35,0,0,1,.3-.41.35.35,0,0,1,.41.29.24.24,0,0,1,0,.12v99.3a.36.36,0,0,1-.36.36Z"/><polygon class="cls-4" points="732.41 108.02 729.65 107.95 619.65 108.74 589.53 115.13 692.95 115.13 732.41 108.02"/><path class="cls-5" d="M589.53,115.43a.36.36,0,0,1-.35-.28.36.36,0,0,1,.26-.42h0l28.06-6.38h.07l114.83-.71a.36.36,0,1,1,0,.72l-114.78.71-28,6.36Z"/><path class="cls-6" d="M656.56,203.49c-8.3-1.94,1.43-47.71,14.62-103.89S696-1.89,704.3.06s10.09,50.42-3.1,106.59S664.85,205.44,656.56,203.49Z"/><path class="cls-3" d="M701.51,76.19c-8.71,5.84-15.37,6.14-15.18,8.19s7.86,3.75,14.4,3.06a42.19,42.19,0,0,0,4.6-.69c1-5.35,1.79-10.58,2.49-15.65A46.08,46.08,0,0,1,701.51,76.19Z"/><path class="cls-3" d="M709.44,40.19c-8.71,5.85-15.37,6.14-15.18,8.19s7.86,3.75,14.4,3.06l1.32-.15q.48-6.26.69-11.95C710.27,39.62,709.87,39.91,709.44,40.19Z"/><path class="cls-3" d="M702.92,99a46.9,46.9,0,0,1-6.58,5.35c-8.71,5.84-15.37,6.14-15.19,8.19s7.86,3.75,14.41,3.06c1-.11,2.24-.24,3.56-.48.72-2.78,1.42-5.6,2.08-8.45C701.81,104.08,702.38,101.53,702.92,99Z"/><path class="cls-3" d="M691.31,133.67c-9.37,4.7-16,4.16-16.09,6.21s7.32,4.71,13.9,4.85h1.06c1.42-4.1,2.82-8.35,4.17-12.74C693.41,132.56,692.41,133.12,691.31,133.67Z"/><path class="cls-3" d="M667.85,168.31c-.07,1.87,5.36,4,11,4.64,1.54-3.33,3.1-6.89,4.65-10.66C674.39,166.78,667.92,166.28,667.85,168.31Z"/><path class="cls-6" d="M667.36,219.67c-8.47.87-14.25-45.56-20.15-103s-9.71-104-1.24-104.9,26,44.35,31.92,101.75S675.83,218.8,667.36,219.67Z"/><path class="cls-3" d="M668.22,84.67C661.9,93,655.7,95.49,656.55,97.37s8.65,1,14.61-1.82a42.38,42.38,0,0,0,4.12-2.15c-.84-5.37-1.76-10.59-2.76-15.6A46.51,46.51,0,0,1,668.22,84.67Z"/><path class="cls-3" d="M664,48.06c-6.32,8.37-12.52,10.82-11.68,12.7s8.66,1,14.61-1.82c.37-.17.78-.36,1.2-.57-1.06-4-2.15-7.9-3.26-11.52A10.47,10.47,0,0,0,664,48.06Z"/><path class="cls-3" d="M677,105.74a45.36,45.36,0,0,1-4.47,7.21c-6.32,8.37-12.52,10.83-11.67,12.71s8.65,1,14.61-1.82c.92-.44,2-1,3.21-1.62q-.34-4.29-.79-8.66C677.62,110.92,677.32,108.32,677,105.74Z"/><path class="cls-3" d="M677.37,142.33c-7.32,7.51-13.78,9.16-13.17,11.13s8.46,2,14.72,0l1-.33q0-6.51-.23-13.4C679,140.59,678.23,141.45,677.37,142.33Z"/><path class="cls-3" d="M666.53,182.73c.54,1.79,6.36,2,12,.78.37-3.66.67-7.54.91-11.61C672.2,179.15,665.93,180.79,666.53,182.73Z"/><ellipse class="cls-6" cx="648.3" cy="129.21" rx="17.96" ry="76.24" transform="translate(-11.67 91.37) rotate(-7.99)"/><path class="cls-7" d="M658.62,205.11a3.47,3.47,0,0,1-2.09-.8c-7-5.2-15.8-36-21-73.18-2.84-20.18-4.22-39.35-3.87-54,.25-10.47,1.49-23.1,6-23.77a3.34,3.34,0,0,1,2.46.78c7,5.2,15.8,36,21,73.18,2.84,20.18,4.21,39.35,3.87,54-.25,10.47-1.5,23.1-6,23.77ZM638,54.07h-.26c-6.57,1-7.27,36.21-1.53,76.94,5.12,36.44,14,67.7,20.76,72.71a2.64,2.64,0,0,0,1.92.64c6.56-1,7.27-36.21,1.53-76.94-5.13-36.44-14-67.7-20.76-72.71A2.87,2.87,0,0,0,638,54.07Z"/><path class="cls-7" d="M658.81,205.1a1.54,1.54,0,0,1-.92-.35c-4.5-3.37-12-35.32-17.53-74.34-5.17-36.77-7.89-76.26-2.74-77a1.45,1.45,0,0,1,1.09.34c4.51,3.37,12,35.33,17.53,74.34,5.18,36.77,7.9,76.26,2.74,77Zm-21-151h-.06c-1.37.2-2.6,6.23-2,22.54.57,14.46,2.45,33.53,5.29,53.68,5.38,38.21,13,70.66,17.25,73.87a.76.76,0,0,0,.56.2c1.37-.2,2.59-6.23,2-22.54-.58-14.46-2.45-33.53-5.29-53.68-5.38-38.21-13-70.66-17.26-73.87a.8.8,0,0,0-.51-.21Z"/><path class="cls-7" d="M658.92,205.09a.51.51,0,0,1-.29-.1c-1.81-1.35-8.1-39.83-13.1-75.35-2.84-20.17-5.25-39.17-6.81-53.5-2.44-22.56-1.63-22.68-1.1-22.76a.48.48,0,0,1,.35.1c1.81,1.35,8.1,39.83,13.1,75.35,2.84,20.17,5.26,39.17,6.81,53.5,2.44,22.56,1.64,22.68,1.1,22.76ZM637.78,54.5c-.44,4.31,2.52,32.83,8.46,75s11,70.41,12.58,74.43c.44-4.31-2.51-32.83-8.45-75S639.4,58.52,637.78,54.5Z"/><path class="cls-7" d="M635.36,63.14a23.33,23.33,0,0,1-4.49-.44.35.35,0,0,1-.28-.41h0A.37.37,0,0,1,631,62a22.76,22.76,0,0,0,7.81.16,23.1,23.1,0,0,0,7.4-2.48.35.35,0,0,1,.34.62,23.48,23.48,0,0,1-7.63,2.56A22.38,22.38,0,0,1,635.36,63.14Z"/><path class="cls-7" d="M635.42,68.56A28.16,28.16,0,0,1,630,68a.35.35,0,0,1-.22-.46.36.36,0,0,1,.36-.24,27.54,27.54,0,0,0,9.41.19,27.9,27.9,0,0,0,8.92-3,.37.37,0,0,1,.48.13h0a.37.37,0,0,1-.13.48h0a29.84,29.84,0,0,1-13.39,3.45Z"/><path class="cls-7" d="M635.94,74.69a31.34,31.34,0,0,1-6.48-.68.36.36,0,0,1-.27-.43.34.34,0,0,1,.41-.27h0a30.18,30.18,0,0,0,21.18-3.25.36.36,0,0,1,.48.14.35.35,0,0,1-.12.48h0a31,31,0,0,1-10.53,3.64A30.28,30.28,0,0,1,635.94,74.69Z"/><path class="cls-7" d="M636.15,81.54a35.84,35.84,0,0,1-7.52-.8.34.34,0,0,1-.27-.41h0a.36.36,0,0,1,.42-.28,35.08,35.08,0,0,0,24.67-3.78.36.36,0,1,1,.35.63,36.17,36.17,0,0,1-12.23,4.23A35.15,35.15,0,0,1,636.15,81.54Z"/><path class="cls-7" d="M637.13,88.51a35.84,35.84,0,0,1-7.52-.8.35.35,0,0,1,.15-.69,35.15,35.15,0,0,0,24.66-3.78.35.35,0,0,1,.48.13h0a.36.36,0,0,1-.13.49,36.17,36.17,0,0,1-12.23,4.23A35,35,0,0,1,637.13,88.51Z"/><path class="cls-7" d="M638.11,95.48a35.83,35.83,0,0,1-7.52-.79.36.36,0,0,1-.27-.43.34.34,0,0,1,.41-.27h0a35.15,35.15,0,0,0,24.66-3.78.36.36,0,0,1,.49.14h0a.36.36,0,0,1-.14.48,35.69,35.69,0,0,1-17.64,4.65Z"/><path class="cls-7" d="M639.1,102.45a36,36,0,0,1-7.53-.79.36.36,0,0,1-.23-.45.35.35,0,0,1,.38-.25,35,35,0,0,0,24.66-3.78.36.36,0,0,1,.35.63A36.56,36.56,0,0,1,644.51,102,35,35,0,0,1,639.1,102.45Z"/><path class="cls-7" d="M640.08,109.43a35.84,35.84,0,0,1-7.52-.8.35.35,0,0,1-.28-.41h0a.37.37,0,0,1,.42-.28,35.1,35.1,0,0,0,24.66-3.77.37.37,0,0,1,.51.06.37.37,0,0,1-.07.51l-.09,0A36.17,36.17,0,0,1,645.49,109,35,35,0,0,1,640.08,109.43Z"/><path class="cls-7" d="M641.06,116.4a36.51,36.51,0,0,1-7.52-.79.36.36,0,1,1,.15-.7,35.05,35.05,0,0,0,12.67.37,35.54,35.54,0,0,0,12-4.15.35.35,0,1,1,.34.62h0a35.71,35.71,0,0,1-17.63,4.65Z"/><path class="cls-7" d="M642,123.37a35.83,35.83,0,0,1-7.52-.79.36.36,0,0,1-.32-.4.36.36,0,0,1,.39-.32l.08,0a35.2,35.2,0,0,0,24.66-3.78.36.36,0,0,1,.48.14.35.35,0,0,1-.13.48h0A36,36,0,0,1,647.45,123,34.27,34.27,0,0,1,642,123.37Z"/><path class="cls-7" d="M643,130.35a35.84,35.84,0,0,1-7.52-.8.34.34,0,0,1-.27-.41h0a.36.36,0,0,1,.42-.28,35.16,35.16,0,0,0,24.68-3.77.35.35,0,0,1,.48.13h0a.36.36,0,0,1-.13.49,36.17,36.17,0,0,1-12.23,4.23A35.27,35.27,0,0,1,643,130.35Z"/><path class="cls-7" d="M640.59,137.83a35.84,35.84,0,0,1-7.52-.8.35.35,0,0,1-.28-.41h0a.37.37,0,0,1,.43-.28,35.15,35.15,0,0,0,24.67-3.77.37.37,0,0,1,.51.06.37.37,0,0,1-.07.51l-.09.05A36,36,0,0,1,646,137.41,35,35,0,0,1,640.59,137.83Z"/><path class="cls-7" d="M641.57,144.8a35.84,35.84,0,0,1-7.52-.8.35.35,0,0,1,.15-.69,35.2,35.2,0,0,0,24.66-3.78.35.35,0,0,1,.48.13h0a.36.36,0,0,1-.13.49A36.28,36.28,0,0,1,647,144.38,35.27,35.27,0,0,1,641.57,144.8Z"/><path class="cls-7" d="M642.55,151.77A36.1,36.1,0,0,1,635,151a.36.36,0,0,1-.23-.45.35.35,0,0,1,.38-.25,35.2,35.2,0,0,0,24.66-3.78.35.35,0,0,1,.46.21.36.36,0,0,1-.11.41,35.77,35.77,0,0,1-17.64,4.65Z"/><path class="cls-7" d="M643.53,158.74A36,36,0,0,1,636,158a.36.36,0,0,1-.23-.45.35.35,0,0,1,.38-.25,35,35,0,0,0,24.66-3.78.36.36,0,0,1,.35.63h0a36.39,36.39,0,0,1-12.23,4.23A34.83,34.83,0,0,1,643.53,158.74Z"/><path class="cls-8" d="M631.13,55.7a202.56,202.56,0,0,0-6.56,35.64c-1.65,17.75-4.66,55.4,15.49,93.14,6.26,11.72,16.12,26,18.92,24.67,4.23-2-12.05-37.48-21.26-88.1A415.46,415.46,0,0,1,631.13,55.7Z"/><path class="cls-9" d="M668.74,147.75c-2.33-44.86-27-84.27-27-84.27a238.74,238.74,0,0,0-1.15,41.84c3,43.41,13.11,98.85,20.58,98.29C666.68,203.2,670,172.29,668.74,147.75Z"/><path class="cls-8" d="M644.88,53.66A200.48,200.48,0,0,1,661,85.94c6.47,16.53,19.74,51.77,10.82,93.82-2.77,13.07-8.29,29.64-11.34,29.17-4.61-.71,1.22-39.45-3.91-90.68A413.85,413.85,0,0,0,644.88,53.66Z"/><polygon class="cls-7" points="623.15 152.55 640.77 146.78 623.32 90.92 605.7 96.68 623.15 152.55"/><polygon class="cls-2" points="599.12 160.41 623.16 152.54 605.72 96.68 581.67 104.54 599.12 160.41"/><path class="cls-2" d="M605.72,96.72,623.07,91a1.24,1.24,0,0,0,0-.47l-12.46-9.25Z"/><path class="cls-7" d="M582,104.49l23.76-7.77,3.79-14.85a.13.13,0,0,0-.1-.15s0,0-.06,0l-23.83,7.79-4,14.75C581.54,104.39,581.85,104.53,582,104.49Z"/><polygon class="cls-7" points="585.45 89.52 609.5 81.65 608.1 76.94 584.06 84.81 585.45 89.52"/><path class="cls-10" d="M625.57,152.11a.33.33,0,0,1-.34-.25L607.78,96a.35.35,0,0,1,.23-.44h0l15.62-5.11a.32.32,0,0,1,.27,0,.41.41,0,0,1,.18.21l17.44,55.87a.35.35,0,0,1-.23.44h0l-15.61,5.11Zm-17-56L625.8,151.3l14.94-4.88L623.5,91.23Z"/><path class="cls-10" d="M601.53,160h-.16a.37.37,0,0,1-.18-.21l-17.44-55.87a.35.35,0,0,1,.23-.44h0l24-7.87a.34.34,0,0,1,.28,0,.39.39,0,0,1,.17.21l17.45,55.86a.35.35,0,0,1-.23.45l-24,7.87Zm-17-56,17.24,55.18,23.36-7.64L607.9,96.33Z"/><path class="cls-10" d="M608.13,96.28a.36.36,0,0,1-.24-.09.33.33,0,0,1-.1-.35l3.94-15.1a.34.34,0,0,1,.24-.25.35.35,0,0,1,.34.06l11.54,9.55c.23.19.18.79.18.8a.37.37,0,0,1-.25.28l-15.54,5.08A.2.2,0,0,1,608.13,96.28Zm4.15-14.82-3.64,13.92,14.67-4.79h0Z"/><path class="cls-10" d="M584.34,104.05a.86.86,0,0,1-.55-.21.49.49,0,0,1-.15-.47l4-14.74a.36.36,0,0,1,.23-.25l23.84-7.79a.46.46,0,0,1,.47.1.49.49,0,0,1,.14.47L608.49,96a.36.36,0,0,1-.23.25L584.5,104A.43.43,0,0,1,584.34,104.05Zm3.94-15-3.84,14.31,23.45-7.67,3.63-14.24Z"/><path class="cls-10" d="M587.87,89.08a.49.49,0,0,1-.17,0,.34.34,0,0,1-.17-.22l-1.4-4.71a.37.37,0,0,1,.23-.44l24-7.86a.32.32,0,0,1,.27,0,.39.39,0,0,1,.18.22l1.39,4.71a.35.35,0,0,1-.23.44h0l-24,7.86Zm-1-4.84,1.2,4,23.36-7.64-1.19-4Z"/><path class="cls-11" d="M649.46,178.7c11,1.75,24.3-7.61,18-23.17-3.34-8.27-12.29-14.7-19.22-27.47-14-25.73-11.59-43.95-19.2-44.86-6.37-.76-13.08,11.63-15.75,19-7.57,21.11,2.71,42.8,6.93,50.8C622,156.36,632.22,176,649.46,178.7Z"/><path class="cls-8" d="M635.7,94.22c-.87-6.21-2.93-11.15-7.27-11.88-5-.85-8.29,4.21-10.92,10.91,1.69-1.88,4.31-3,6-2.48a4.79,4.79,0,0,1,3,4.66,5.53,5.53,0,0,1,5.3-4.06C634.3,91.46,635.54,94,635.7,94.22Z"/><path class="cls-8" d="M628.24,86.94h0a.37.37,0,0,1-.35-.36A23.62,23.62,0,0,1,630,77a23.14,23.14,0,0,1,7.74-9.24.35.35,0,0,1,.48.06v0a.36.36,0,0,1-.07.49h0a22.46,22.46,0,0,0-7.5,9,23,23,0,0,0-2.09,9.31A.36.36,0,0,1,628.24,86.94Z"/><path class="cls-12" d="M635,103.52c1.25-.21,1.63,12.85,10.51,28.82,8.19,14.73,17.75,21.41,17,22.33S647.76,148.8,640,134.82C631.79,120.21,633.57,103.75,635,103.52Z"/><rect class="cls-11" x="656.26" y="68.67" width="23.61" height="6.21" rx="1.78"/><polygon class="cls-2" points="687.18 165.13 654.38 165.13 654.38 105.4 662 74.89 679.55 74.89 687.18 105.4 687.18 165.13"/><rect class="cls-13" x="651.78" y="114.05" width="32.94" height="19.81"/><path class="cls-10" d="M684.64,165.49H651.83a.37.37,0,0,1-.35-.36V117.94a102.06,102.06,0,0,1,3-24.79l4.59-18.35a.35.35,0,0,1,.34-.27H677a.35.35,0,0,1,.34.27l4.59,18.35a102.06,102.06,0,0,1,3,24.79v47.19A.36.36,0,0,1,684.64,165.49Zm-32.45-.71h32.09V117.94a101.61,101.61,0,0,0-3-24.62l-4.52-18.08h-17l-4.52,18.08a101.61,101.61,0,0,0-3,24.62Z"/><path class="cls-14" d="M718.28,165.35l-35.68-4.83,10.74-79.37A13.08,13.08,0,0,1,700.93,71l5.58-2.54,3.26-24.39,12.46,1.68L719,70.14l5.12,4a13.09,13.09,0,0,1,4.91,12Z"/><rect class="cls-7" x="691.71" y="96.23" width="24.77" height="29.61" transform="translate(499.72 793.91) rotate(-82.3)"/><path class="cls-7" d="M717.14,52.16h0L708.82,51a.37.37,0,0,1-.3-.4.35.35,0,0,1,.38-.31h0l8.27,1.12a.36.36,0,0,1,.27.43.35.35,0,0,1-.32.28Z"/><path class="cls-7" d="M716.77,54.91h0l-8.27-1.12a.35.35,0,0,1,.1-.7l8.27,1.12a.36.36,0,0,1,.27.43.35.35,0,0,1-.32.28Z"/><path class="cls-3" d="M693.57,232.31l40.93-18.63-.92-105c0-.39-.47-.68-1-.59l-39,6.77Z"/><rect class="cls-6" x="588.72" y="114.89" width="104.85" height="117.42"/><path class="cls-6" d="M693.57,114.89l15.35,22,38.38-7-14-22.21a.77.77,0,0,0-.82-.29Z"/><polygon class="cls-3" points="588.9 114.59 571.45 136.97 676.12 136.67 693.57 114.89 588.9 114.59"/><g id="Online_flea_market" data-name="Online flea market"><rect class="cls-14" x="214.18" width="328.79" height="233.15"/><rect class="cls-15" x="224.5" y="10.31" width="308.16" height="192.53"/><path class="cls-14" d="M344,238.09h9.74A13.22,13.22,0,0,0,367,251.31h23.31a13.22,13.22,0,0,0,13.22-13.22h9.73L423,289.82v4.32H334.24v-4.32Z"/><path class="cls-14" d="M422.92,300H334.24a.45.45,0,0,1-.45-.45h0a.45.45,0,0,1,.45-.45h88.68a.45.45,0,0,1,.45.45h0A.45.45,0,0,1,422.92,300Z"/></g><rect class="cls-14" x="995.93" y="186.55" width="130.99" height="60.26" transform="translate(116.81 747.04) rotate(-40.85)"/><rect class="cls-7" x="988.2" y="185.93" width="130.99" height="60.26" transform="translate(115.33 741.83) rotate(-40.85)"/><path class="cls-10" d="M1123.21,196a.27.27,0,0,1-.11.22L1024,281.85a.29.29,0,0,1-.41,0h0l-39.42-45.58a.31.31,0,0,1,0-.42l99.08-85.68a.27.27,0,0,1,.21-.07.26.26,0,0,1,.2.1l39.43,45.58A.38.38,0,0,1,1123.21,196Zm-99.34,85.26L1122.49,196l-39-45.14-98.63,85.3Z"/><path class="cls-14" d="M1064,213v.6a8.15,8.15,0,0,1-2.83,5.63l-40.72,35.22a8.24,8.24,0,0,1-11.61-.84h0a8.24,8.24,0,0,1,.84-11.61l40.72-35.22A8.24,8.24,0,0,1,1064,213Zm-54.73,40.22A7.65,7.65,0,0,0,1020,254l40.72-35.22a7.64,7.64,0,0,0-10-11.55L1010,242.43a7.65,7.65,0,0,0-.78,10.78Z"/><polygon class="cls-6" points="1051.86 214.2 1049.88 216.4 1052.83 216.63 1054.32 219.19 1055.45 216.46 1058.34 215.84 1056.09 213.92 1056.4 210.97 1053.87 212.52 1051.17 211.32 1051.86 214.2"/><polygon class="cls-6" points="1042.6 222.21 1040.62 224.41 1043.57 224.64 1045.06 227.2 1046.19 224.47 1049.08 223.85 1046.83 221.93 1047.14 218.98 1044.61 220.53 1041.91 219.33 1042.6 222.21"/><polygon class="cls-6" points="1033.34 230.21 1031.36 232.41 1034.32 232.65 1035.8 235.21 1036.93 232.47 1039.82 231.85 1037.57 229.93 1037.88 226.99 1035.36 228.54 1032.65 227.34 1033.34 230.21"/><polygon class="cls-6" points="1024.08 238.22 1022.11 240.42 1025.06 240.65 1026.54 243.22 1027.67 240.48 1030.57 239.86 1028.31 237.94 1028.62 235 1026.1 236.54 1023.39 235.34 1024.08 238.22"/><polygon class="cls-6" points="1014.82 246.23 1012.85 248.43 1015.8 248.66 1017.28 251.22 1018.41 248.49 1021.31 247.87 1019.05 245.95 1019.36 243 1016.84 244.55 1014.13 243.35 1014.82 246.23"/><rect class="cls-3" x="1079.55" y="160.5" width="7" height="67.15" transform="translate(143.9 767.36) rotate(-41.56)"/><path class="cls-6" d="M1079.21,179.05v.08l-1.3,4.69a.29.29,0,0,1-.23.21.31.31,0,0,1-.3-.11l-11.6-15.78a.3.3,0,0,1,0-.34.29.29,0,0,1,.32-.12l7.23,1.85,1.72-3.7a.29.29,0,0,1,.55,0l3.6,13.12S1079.21,179,1079.21,179.05Zm-1.72,4,1.12-4-3.38-12.24-1.49,3.19a.3.3,0,0,1-.34.17l-6.67-1.71Z"/><path class="cls-6" d="M1105.28,182.74a.43.43,0,0,1,0,.16l-3.92,6.35,3,2.75a.29.29,0,0,1-.19.51l-19,.78a.28.28,0,0,1-.3-.22l-.65-2.63a.29.29,0,0,1,.19-.34l20.54-7.63a.28.28,0,0,1,.33.09A.28.28,0,0,1,1105.28,182.74Zm-4.65,6.56a.38.38,0,0,1,0-.15l3.6-5.83-19.49,7.24.52,2.13,18.09-.74-2.67-2.43A.28.28,0,0,1,1100.63,189.3Z"/><path class="cls-3" d="M1082.65,191c8.54,2.62,15,3.77,15.8.83a1.64,1.64,0,0,0-1.09-2.05,1.69,1.69,0,0,0-.45-.07C1094,189.54,1087.72,190.45,1082.65,191Z"/><path class="cls-6" d="M1083,192.25a53.94,53.94,0,0,0,11.07,9.69,2.22,2.22,0,0,0,2.55-.29c3.5-2.85,4.44-9.74,1-11.76,2.28,3.32-3.11,3.73-12.83,1.59C1084.1,191.33,1083.75,192.43,1083,192.25Z"/><path class="cls-3" d="M1083.81,192.29c-2.28-10.75-2.74-18.29,2.39-16C1087.55,177.83,1085,185.94,1083.81,192.29Z"/><path class="cls-6" d="M1083.17,192.23c-5.19-6.09-8.41-10.92-9.64-13.47a2.25,2.25,0,0,1,.51-2.58c3.25-3.15,8.91-4.19,12.16.11-3.38-1.55-4.11,3.56-2.66,14.09C1083.62,191,1083.07,191.57,1083.17,192.23Z"/><path class="cls-6" d="M1086,190.71l-1.37-1.94-2.8,2.29,1.71,2a.62.62,0,0,0,.87.08.87.87,0,0,0,.13-.15Z"/><path class="cls-4" d="M1085,189.09a.31.31,0,0,1-.21.28,6.51,6.51,0,0,0-2.53,1.67l1.89,2.08a.28.28,0,0,1,0,.4h0a.31.31,0,0,1-.42,0l-1.91-2.08a.58.58,0,0,1,0-.76,7.28,7.28,0,0,1,2.81-1.86.29.29,0,0,1,.37.18h0Z"/><path class="cls-6" d="M1095.91,218.33a.22.22,0,0,1-.08.2.31.31,0,0,1-.33.08l-6.88-2.91-2.25,3.41a.29.29,0,0,1-.31.12.3.3,0,0,1-.23-.25l-1.63-13.48a.43.43,0,0,1,0-.16l2-4.45a.33.33,0,0,1,.26-.18.3.3,0,0,1,.27.16l9.15,17.32A.32.32,0,0,1,1095.91,218.33Zm-9.59-.22,2-2.94a.3.3,0,0,1,.36-.11l6.34,2.68-8.48-16.05-1.7,3.82Z"/><path class="cls-6" d="M1081,193.44a.3.3,0,0,1-.24.29l-21.45,4.51a.28.28,0,0,1-.31-.14.3.3,0,0,1,0-.34l4.82-5.7-2.58-3.16a.29.29,0,0,1,0-.33.27.27,0,0,1,.29-.15l19,2a.28.28,0,0,1,.26.26l.25,2.7Zm-21,4,20.35-4.27-.2-2.19-18-1.94,2.28,2.8a.3.3,0,0,1,0,.38Z"/><path class="cls-3" d="M1082.56,193.1c-8.06-3.85-14.3-5.94-15.51-3.15a1.66,1.66,0,0,0,.79,2.2,1.64,1.64,0,0,0,.43.13C1071.13,192.85,1077.47,192.88,1082.56,193.1Z"/><path class="cls-6" d="M1082.38,191.8c-4.19-6.16-7.48-9.51-9.51-11.22a2.28,2.28,0,0,0-2.57-.1c-3.89,2.31-5.84,9-2.71,11.49-1.78-3.62,3.62-3.22,12.92.33C1081.17,192.55,1081.68,191.51,1082.38,191.8Z"/><path class="cls-3" d="M1081.6,191.64c.67,11,0,18.49-4.73,15.47C1075.77,205.39,1079.45,197.74,1081.6,191.64Z"/><path class="cls-6" d="M1082.23,191.8c4.23,6.78,6.7,12,7.54,14.75a2.23,2.23,0,0,1-.89,2.47c-3.67,2.64-9.43,2.83-12-1.91,3.12,2,4.59-2.91,4.72-13.54C1081.6,193,1082.23,192.46,1082.23,191.8Z"/><path class="cls-6" d="M1079.21,192.88l1.07,2.12,3.11-1.85-1.39-2.21a.63.63,0,0,0-.85-.22.64.64,0,0,0-.15.13Z"/><path class="cls-4" d="M1083.6,193.12a.57.57,0,0,1-.19.42,7.26,7.26,0,0,1-3.06,1.44.31.31,0,0,1-.34-.25.29.29,0,0,1,.23-.34h0a6.74,6.74,0,0,0,2.75-1.28l-1.57-2.33a.29.29,0,0,1,.09-.41.3.3,0,0,1,.41.08l1.57,2.35A.53.53,0,0,1,1083.6,193.12Z"/><rect class="cls-7" x="814.05" y="5.15" width="186.95" height="104.1"/><path class="cls-10" d="M1005.54,114.12H818.59a.44.44,0,0,1-.44-.44h0V9.58a.44.44,0,0,1,.44-.44h186.95a.44.44,0,0,1,.44.44h0v104.1a.44.44,0,0,1-.44.44ZM819,113.23h186.1V10H819Z"/><rect class="cls-2" x="829.53" y="24.09" width="99.04" height="71.15"/><path class="cls-10" d="M978.12,48.42H943.59a9.36,9.36,0,0,1,0-18.71h34.53a9.36,9.36,0,0,1,0,18.71ZM943.59,30.6a8.47,8.47,0,0,0,0,16.93h34.53a8.47,8.47,0,0,0,0-16.93Z"/><rect class="cls-6" x="934.69" y="59.71" width="52.33" height="17.82" rx="8.9"/><path class="cls-15" d="M860.19,69.74h-7.26L845.44,55.3h-.13c.18,2.27.27,4,.27,5.2v9.24h-4.91V49.24h7.24l7.46,14.25h.08c-.13-2.07-.19-3.73-.19-5V49.24h4.93Z"/><path class="cls-15" d="M876.79,69.74H864.62V49.24h12.17v4.45h-6.63v3.22h6.14v4.45h-6.14v3.86h6.63Z"/><path class="cls-15" d="M902.52,69.74H896l-2-8.93c-.09-.38-.24-1.12-.44-2.23s-.35-2-.44-2.79c-.08.61-.2,1.36-.37,2.26s-.33,1.74-.5,2.49-.84,3.83-2,9.2h-6.54l-5.08-20.5H884l2.23,10.28a53.71,53.71,0,0,1,1,5.42c.12-.95.34-2.24.65-3.88s.61-3,.88-4.07l1.81-7.75h5.13L897.43,57c.3,1.25.6,2.68.91,4.31s.52,2.84.62,3.64q.18-1.55,1-5.39l2.27-10.31h5.35Z"/><path class="cls-15" d="M916.7,62.5h-4.63l-.71-13.26h6Zm-5.29,4.91a2.58,2.58,0,0,1,.76-2,3.14,3.14,0,0,1,2.2-.71,3,3,0,0,1,2.17.71,2.6,2.6,0,0,1,.73,2,2.56,2.56,0,0,1-.76,2,3,3,0,0,1-2.14.71,3.11,3.11,0,0,1-2.17-.71,2.52,2.52,0,0,1-.79-2Z"/><ellipse class="cls-7" cx="622.11" cy="172.52" rx="21.99" ry="22.01"/><g class="cls-16"><path class="cls-11" d="M603.23,182.45c4-1.63,10.58-4,16.83-4.38,7.29-.47,18.7,1.15,23.85,3.12,11.5,4.41,16.57,9.07,16.57,9.07l-15.19,6.3,11.16,20.27a26.57,26.57,0,0,1,1,23.11l-11.2,1.78L646,229.46l-3.51,11.74-34.62-15.46-4.49-19-21-2.09S596.16,185.29,603.23,182.45Z"/><rect class="cls-4" x="615.85" y="162.19" width="9.44" height="23.81" rx="4.32" transform="translate(-21.59 118.92) rotate(-10.76)"/><path class="cls-4" d="M612.76,179.05c2.17,2.07,9.39-2.44,9.39-2.44l5.39-6.76a7.64,7.64,0,0,0-15-2.74c0,.18-.06.35-.08.53C612.43,167.64,610.55,176.94,612.76,179.05Z"/><path class="cls-4" d="M613,169.76s-2.44,1.91-2.42,2.51,2.33,1.49,2.33,1.49Z"/><path class="cls-7" d="M618.56,169.09a4.31,4.31,0,0,0-1.7-.74c-.21,0-.11,1.68.11,1.63A4.24,4.24,0,0,0,618.56,169.09Z"/><g class="cls-17"><path class="cls-10" d="M616.82,168.3a1.67,1.67,0,1,0-.4,2.33h0A1.67,1.67,0,0,0,616.82,168.3Z"/></g><path class="cls-10" d="M629.79,161.72s2.44,8.51-3.32,10.89l-1.33-1.35-3.49,1.15,1.69-3.93a2.55,2.55,0,0,0-1.66-3.19,2.77,2.77,0,0,0-.5-.1l-7-.74.62-3.7C619.82,158.49,624.8,158.44,629.79,161.72Z"/><path class="cls-10" d="M622.2,159.72a1.46,1.46,0,0,0,1.87-.86c.27-.76,0-2-.72-2.27s-1.74.51-2,1.26A1.45,1.45,0,0,0,622.2,159.72Z"/><path class="cls-10" d="M621.06,160a1.47,1.47,0,0,0,1.22-1.67c-.13-.79-.93-1.75-1.73-1.63s-1.27,1.29-1.15,2.08A1.46,1.46,0,0,0,621.06,160Z"/><path class="cls-10" d="M618.64,160.61a2,2,0,0,0,1.22-2.5c-.35-1-1.66-2.12-2.69-1.77s-1.39,2-1,3A2,2,0,0,0,618.64,160.61Z"/><path class="cls-10" d="M624.46,160.16a1.46,1.46,0,0,0,1.9-.8c.3-.75.1-2-.64-2.29s-1.76.45-2.06,1.2A1.46,1.46,0,0,0,624.46,160.16Z"/><path class="cls-10" d="M616.79,160.76a1.77,1.77,0,0,0-.59-2.42c-.83-.5-2.35-.49-2.85.34s.2,2.17,1,2.67a1.74,1.74,0,0,0,2.41-.55Z"/><path class="cls-10" d="M626.22,160.91a1.81,1.81,0,0,0,2.49-.53v0c.54-.84.58-2.4-.26-2.94s-2.25.14-2.79,1a1.81,1.81,0,0,0,.54,2.49Z"/><path class="cls-10" d="M628,161.39a1.42,1.42,0,0,0,1.94.49c.67-.41,1.24-1.49.83-2.16a1.82,1.82,0,0,0-2.29-.27A1.42,1.42,0,0,0,628,161.39Z"/><path class="cls-10" d="M616.09,162.87a2.14,2.14,0,0,0-1.61-2.56c-1.16-.26-2.91.32-3.17,1.47s1.06,2.44,2.21,2.7a2.14,2.14,0,0,0,2.57-1.6Z"/><path class="cls-4" d="M629,170.09a2.63,2.63,0,1,1-3.21-1.88,2.62,2.62,0,0,1,3.21,1.88Z"/><path class="cls-10" d="M611.72,173.26l-.11,6.41a1.57,1.57,0,0,0,1.55,1.59h.78a12.93,12.93,0,0,0,10.67-6.65h0a3.62,3.62,0,0,0-.39-4.08l-.32-.37-1.33.51s-1.39,3.32-2.71,3.4S616.27,172.78,611.72,173.26Z"/><path class="cls-4" d="M615.56,175.44a1.44,1.44,0,0,0,.61-1.12.35.35,0,0,0-.4-.29.36.36,0,0,0-.29.29.73.73,0,0,1-.42.65.76.76,0,0,1-.79-.12.34.34,0,0,0-.48.48,1.37,1.37,0,0,0,1.51.22A.85.85,0,0,0,615.56,175.44Z"/><path class="cls-4" d="M626.52,163.92a.34.34,0,0,0,.1-.46.34.34,0,0,0-.47-.11h0l-3.3,2a.35.35,0,0,0-.12.47.34.34,0,0,0,.47.11h0l3.31-2Z"/></g><path class="cls-18" d="M721.11,221.05h0c-16.44-25.77-27.61-44.37-31.28-50a12.19,12.19,0,0,0-2.27-2.69c-4.48-3.94-9.12-1.88-15.72-3.87-7.49-2.25-10.43-7.77-12.1-6.68-1.16.76-.64,3.16,2.12,7.25h0c-2.45-2.87-6-6.61-7.53-5.25-1.74,1.67,1.85,6.55,4.17,9.4-2.8-3.45-5.32-4.44-6-3.46-1.08,1.54.47,4.72,4.35,9.13-3.53-2.3-4.73-2.33-5.13-1.31-.73,1.85,2.53,5.42,5.89,8.13a24.83,24.83,0,0,0,10.32,4.7h0c9.64,19.24,16.69,31.25,23.29,47.33C695.41,244,719.74,237.77,721.11,221.05Z"/><path class="cls-18" d="M677.47,167.75c-3.74-6.78-3.66-10-2.56-10.58,1.83-.94,7.39,3.54,14.1,12.76C685.74,169.61,680.74,168.07,677.47,167.75Z"/><path class="cls-10" d="M678.93,180.94a.34.34,0,0,0,.17-.05.37.37,0,0,0,.15-.5,10.37,10.37,0,0,0-4.21-4.17,10.57,10.57,0,0,0-7.45-.83.37.37,0,0,0-.27.45h0a.36.36,0,0,0,.44.26h0a9.88,9.88,0,0,1,6.92.77,9.65,9.65,0,0,1,3.91,3.87A.38.38,0,0,0,678.93,180.94Z"/><path class="cls-10" d="M684,167a.37.37,0,0,0,.35-.25.38.38,0,0,0-.24-.47,21.86,21.86,0,0,0-5.21-.76c-.85-.06-1.73-.12-2.65-.22a.38.38,0,0,0-.41.33.37.37,0,0,0,.33.4c.93.11,1.82.17,2.68.22a21.66,21.66,0,0,1,5,.74Z"/><path class="cls-10" d="M667.9,169.07a.38.38,0,0,0,.37-.37.37.37,0,0,0-.25-.35,15.29,15.29,0,0,1-2.51-1.13,15.56,15.56,0,0,1-3.17-2.42.36.36,0,0,0-.51,0h0a.37.37,0,0,0,0,.52,15.87,15.87,0,0,0,3.33,2.54,16.81,16.81,0,0,0,2.63,1.19Z"/><path class="cls-10" d="M664.19,172.76a.38.38,0,0,0,.37-.37.37.37,0,0,0-.25-.35,14.11,14.11,0,0,1-2.5-1.14,14.59,14.59,0,0,1-3.17-2.41.37.37,0,0,0-.52.06.36.36,0,0,0,0,.46,15.89,15.89,0,0,0,6,3.73Z"/><path class="cls-10" d="M662.75,179a.38.38,0,0,0,.37-.37.37.37,0,0,0-.25-.35,14.54,14.54,0,0,1-2.51-1.14,14.85,14.85,0,0,1-3.16-2.41.37.37,0,0,0-.52.06.36.36,0,0,0,0,.46,16.07,16.07,0,0,0,3.32,2.54,16.81,16.81,0,0,0,2.63,1.19Z"/><path class="cls-8" d="M769.24,206.72h44.25l.23-18.55c-19.39-3.44-29.14-3.24-44.47-1.13Z"/><path class="cls-7" d="M734.46,199.07s26.76-13.64,57.76-11.87c27.71,1.59,54.67,13.35,54.67,13.35l-13.2,33.62L838.75,300H741.27l6-63.73Z"/><path class="cls-8" d="M769.24,187V300h-31.7V241.31l-18.07,5.36A27.64,27.64,0,0,1,686.65,232l-10.41-21.94,30-15.56,8.29,14.14S735,192.56,769.24,187Z"/><path class="cls-8" d="M842.88,198.35c3.64,1.7,34.14,17.75,34.12,60.06,0,11.57-12,19.38-23.08,16l-9-2.77L844.1,300H813.49V188.16C824.63,190.08,836.74,195.46,842.88,198.35Z"/><path class="cls-10" d="M852.25,243.31a.38.38,0,0,0,.36-.38.36.36,0,0,0-.25-.34l-7-2.35a.37.37,0,0,0-.49.19.38.38,0,0,0,.19.49l.07,0,7,2.35Z"/><path class="cls-2" d="M804.83,256.33H805a.37.37,0,0,0,.22-.47l-17.49-49.17a.35.35,0,0,0-.34-.25h0l-38.33.34a.38.38,0,0,0-.37.37.39.39,0,0,0,.37.37l38.08-.34,17.4,48.93A.36.36,0,0,0,804.83,256.33Z"/><polygon class="cls-14" points="763.62 259.32 801.95 259.32 784.47 210.15 746.13 210.15 763.62 259.32"/><path class="cls-18" d="M843.3,239.73c-10.85-4.27-28.24-8.28-31.1-9-5.35-1.34-34.26-7.76-35.63-3.68-.66,1.95,4.85,3.44,6.73,3.88-1.7.39-8.37,1.17-8.51,3.47-.18,2.7,7.91,3,8,3.08-1.76.22-8.82.8-9,2.52-.23,2.23,6.49,3.66,8.52,4-.26.24-7-.18-7.42,2.47-.28,2,5.88,3.26,8.56,3.83,4.75,1.19,46.08,14.85,56.61,16.69C844.24,267.71,847.47,245.23,843.3,239.73Z"/><path class="cls-10" d="M792.89,231.94a.35.35,0,0,0,.35-.26.36.36,0,0,0-.25-.46h0a25.89,25.89,0,0,0-9.75-.86.36.36,0,0,0-.32.39v0a.37.37,0,0,0,.4.33,26.08,26.08,0,0,1,3.42-.13,24.93,24.93,0,0,1,6,1Z"/><path class="cls-10" d="M789.63,238.68a.37.37,0,0,0,.11-.73,25.8,25.8,0,0,0-6.23-1h-.76a.37.37,0,0,0,0,.73h.73a24.39,24.39,0,0,1,6,.95Z"/><path class="cls-10" d="M786.5,245.16a.36.36,0,0,0,.35-.27.35.35,0,0,0-.22-.44h0a25.5,25.5,0,0,0-4.05-.82.36.36,0,0,0-.41.3v0a.36.36,0,0,0,.3.41h0a25.25,25.25,0,0,1,3.94.8Z"/><circle class="cls-10" cx="771.1" cy="145.96" r="2.42"/><path class="cls-18" d="M785.91,138.73c-.83-.08-8.74-.73-13.5,4.69-3.54,4-4,9.2-3.37,18,.7,10.34,2.56,16.43,5.53,18.47,4.7,3.23,18.78-4,24.07-13a20.83,20.83,0,0,0-.65-21.36C794,139.06,786.43,138.78,785.91,138.73Z"/><path class="cls-18" d="M789.74,197.34A8.33,8.33,0,0,1,781.4,189V162.26a8.34,8.34,0,0,1,16.67-.58,5.61,5.61,0,0,1,0,.58V189a8.33,8.33,0,0,1-8.32,8.34Z"/><path class="cls-10" d="M781.59,180.53h.12a34.52,34.52,0,0,0,9.44-4.82.37.37,0,0,0,.08-.51.38.38,0,0,0-.52-.08,34.11,34.11,0,0,1-9.23,4.71.36.36,0,0,0-.27.43.35.35,0,0,0,.38.28Z"/><circle class="cls-10" cx="800.19" cy="160.61" r="2.98"/><ellipse class="cls-10" cx="795.75" cy="158.51" rx="3.59" ry="3.6"/><path class="cls-10" d="M774.25,141.73a3.09,3.09,0,1,0,3.09-3.09,3.09,3.09,0,0,0-3.09,3.09Z"/><circle class="cls-10" cx="781.92" cy="142.11" r="2.9"/><ellipse class="cls-10" cx="786.23" cy="144.82" rx="2.68" ry="2.69"/><circle class="cls-10" cx="773.12" cy="142.55" r="2.59"/><path class="cls-10" d="M774.06,140a3.1,3.1,0,1,0,3.1-3.1h0A3.1,3.1,0,0,0,774.06,140Z"/><path class="cls-10" d="M778.17,138.56a3.36,3.36,0,1,0,3.36-3.36h0A3.35,3.35,0,0,0,778.17,138.56Z"/><circle class="cls-10" cx="786.76" cy="138.59" r="3.65"/><path class="cls-10" d="M788.34,139.77a3.6,3.6,0,1,0,3.6-3.6h0A3.6,3.6,0,0,0,788.34,139.77Z"/><ellipse class="cls-10" cx="795.32" cy="142.17" rx="3.69" ry="3.7"/><ellipse class="cls-10" cx="798.22" cy="145.79" rx="3.09" ry="3.1"/><path class="cls-10" d="M797,150.32a3.1,3.1,0,1,0,3.1-3.1h0a3.09,3.09,0,0,0-3.1,3.08Z"/><ellipse class="cls-10" cx="790.87" cy="146.07" rx="3.09" ry="3.1"/><ellipse class="cls-10" cx="788.93" cy="142.32" rx="2.68" ry="2.69"/><circle class="cls-10" cx="793.51" cy="149.63" r="2.98"/><circle class="cls-10" cx="795.8" cy="147.64" r="2.98"/><path class="cls-10" d="M793.11,153.7a3.5,3.5,0,1,0,3.5-3.5h0A3.5,3.5,0,0,0,793.11,153.7Z"/><circle class="cls-10" cx="801.13" cy="155.42" r="2.98"/><path class="cls-10" d="M777.42,169.24a.37.37,0,0,0,.29-.14.38.38,0,0,0-.07-.52c-.78-.6-1.17-1.12-1.11-1.52,0-.24.2-.39.54-.65a4.25,4.25,0,0,0,.94-1,4.08,4.08,0,0,0,.4-3,.38.38,0,0,0-.39-.35.37.37,0,0,0-.35.39.3.3,0,0,0,0,.1,2.86,2.86,0,0,1-1.08,3.27,1.78,1.78,0,0,0-.81,1.12c-.1.7.36,1.43,1.39,2.22A.38.38,0,0,0,777.42,169.24Z"/><path class="cls-10" d="M780.8,172.81a2.59,2.59,0,0,0,1.56-.52,2.76,2.76,0,0,0,1-1.94A.36.36,0,0,0,783,170h0a.37.37,0,0,0-.39.34,1.92,1.92,0,0,1-.68,1.39,2,2,0,0,1-2.33,0,.35.35,0,0,0-.5.09h0a.37.37,0,0,0,.11.51A2.9,2.9,0,0,0,780.8,172.81Z"/><path class="cls-18" d="M793.87,168.35a5.2,5.2,0,0,0,5.46-2.62c1.52-2.47,1.08-5.52-1-6.8a4.66,4.66,0,0,0-5.78,1.2Z"/><path class="cls-10" d="M794.84,168.84a5.86,5.86,0,0,0,4.81-2.91c1.62-2.65,1.12-5.93-1.13-7.31-1.9-1.18-4.47-.66-6.24,1.26a.37.37,0,0,0,.49.56l.05-.06a4.27,4.27,0,0,1,5.32-1.13c1.9,1.17,2.29,4,.88,6.29a4.82,4.82,0,0,1-5,2.46.37.37,0,0,0-.44.26h0a.36.36,0,0,0,.26.45A4.38,4.38,0,0,0,794.84,168.84Z"/><path class="cls-10" d="M797,165a.37.37,0,0,0,.29-.14c1-1.27,1-2.94,0-3.72a2.47,2.47,0,0,0-3.16.41.37.37,0,0,0,0,.52.36.36,0,0,0,.51,0h0a1.8,1.8,0,0,1,2.22-.38c.67.53.61,1.73-.14,2.69a.37.37,0,0,0,.06.52h0A.41.41,0,0,0,797,165Z"/><path class="cls-7" d="M774.38,159.14c-.37-.09-.41,2.83-.07,2.75a7,7,0,0,0,2.81-1.41A7.09,7.09,0,0,0,774.38,159.14Z"/><path class="cls-10" d="M773.21,159a6.33,6.33,0,0,1,1.15.13,2.83,2.83,0,0,1,0,2.76,4.93,4.93,0,0,1-1.09.13,6.76,6.76,0,0,1-3.92-1.47A6.77,6.77,0,0,1,773.21,159Z"/><path class="cls-7" d="M785.56,159.14c-.37-.09-.41,2.83-.07,2.75a7,7,0,0,0,2.81-1.41A7.09,7.09,0,0,0,785.56,159.14Z"/><path class="cls-10" d="M784.39,159a6.33,6.33,0,0,1,1.15.13,2.83,2.83,0,0,1,0,2.76,4.93,4.93,0,0,1-1.09.13,6.76,6.76,0,0,1-3.92-1.47A6.77,6.77,0,0,1,784.39,159Z"/><rect class="cls-7" x="634.84" y="193.64" width="11.83" height="31.45" transform="translate(296.16 788.72) rotate(-77.35)"/><path class="cls-19" d="M963.18,157.79H875.23a.6.6,0,0,1-.61-.59h0V69.28a.61.61,0,0,1,.61-.61h87.95a.62.62,0,0,1,.6.61v87.91A.6.6,0,0,1,963.18,157.79Zm-87.35-1.21h86.74V69.88H875.83Z"/><polygon class="cls-8" points="914.49 143.9 886.95 118.86 895.46 108.38 912.92 122.33 940.31 82.57 951.46 90.24 914.49 143.9"/><path class="cls-7" d="M462.24,54.11h-3.88a8.44,8.44,0,0,1-8.44-8.44h0V10.31h20.77V45.67a8.44,8.44,0,0,1-8.44,8.44Z"/><path class="cls-8" d="M441.76,54.11h-3.88a8.44,8.44,0,0,1-8.44-8.44h0V10.31H450.2V45.67a8.44,8.44,0,0,1-8.44,8.44Z"/><path class="cls-8" d="M483,54.11h-3.86a8.44,8.44,0,0,1-8.44-8.44h0V10.31h20.75V45.67A8.44,8.44,0,0,1,483,54.11h0Z"/><path class="cls-8" d="M524.56,54.11h-3.88a8.44,8.44,0,0,1-8.44-8.44h0V10.31H533V45.67a8.44,8.44,0,0,1-8.44,8.44h0Z"/><path class="cls-7" d="M421.26,54.11h-3.88a8.44,8.44,0,0,1-8.44-8.44h0V10.31H429.7V45.67a8.44,8.44,0,0,1-8.44,8.44Z"/><path class="cls-8" d="M400.77,54.11h-3.88a8.44,8.44,0,0,1-8.44-8.44h0V10.31h20.77V45.67a8.44,8.44,0,0,1-8.44,8.44Z"/><path class="cls-7" d="M380.28,54.11H376.4A8.44,8.44,0,0,1,368,45.67h0V10.31h20.71V45.67a8.44,8.44,0,0,1-8.44,8.44h0Z"/><path class="cls-8" d="M359.79,54.11h-3.88a8.44,8.44,0,0,1-8.44-8.44h0V10.31h20.76V45.67a8.44,8.44,0,0,1-8.44,8.44Z"/><path class="cls-7" d="M339.29,54.11h-3.88A8.44,8.44,0,0,1,327,45.67h0V10.31H347.7V45.67A8.44,8.44,0,0,1,339.29,54.11Z"/><path class="cls-8" d="M318.8,54.11h-3.88a8.44,8.44,0,0,1-8.44-8.44h0V10.31h20.77V45.67a8.44,8.44,0,0,1-8.44,8.44Z"/><path class="cls-7" d="M298.31,54.11h-3.88A8.44,8.44,0,0,1,286,45.67h0V10.31h20.74V45.67A8.44,8.44,0,0,1,298.31,54.11Z"/><path class="cls-8" d="M277.81,54.11h-3.88a8.44,8.44,0,0,1-8.44-8.44h0V10.31h20.76V45.67a8.44,8.44,0,0,1-8.44,8.44Z"/><path class="cls-7" d="M257.32,54.11h-3.88A8.44,8.44,0,0,1,245,45.67h0V10.31h20.76V45.67a8.44,8.44,0,0,1-8.44,8.44Z"/><path class="cls-8" d="M236.82,54.11h-3.88a8.44,8.44,0,0,1-8.44-8.44h0V10.31h20.77V45.67a8.44,8.44,0,0,1-8.44,8.44h0Z"/><path class="cls-7" d="M503.79,54.11h-3.88a8.44,8.44,0,0,1-8.44-8.44V10.31h20.77V45.67a8.44,8.44,0,0,1-8.44,8.44h0Z"/><path class="cls-10" d="M533,10.76H224.5a.44.44,0,0,1-.51-.38.45.45,0,0,1,.38-.51H533a.44.44,0,0,1,.51.38.45.45,0,0,1-.38.51Z"/><rect class="cls-2" x="336.06" y="49.12" width="83.31" height="140"/><path class="cls-3" d="M408.55,163.58H346.87a19.63,19.63,0,1,1-.89-39.25c.3,0,.59,0,.89,0h61.68a19.63,19.63,0,1,1,.89,39.25Z"/><rect class="cls-14" x="349.84" y="64.32" width="55.73" height="7"/><rect class="cls-7" x="349.84" y="82.24" width="55.73" height="32.76"/><path class="cls-7" d="M345.09,146.05a3.1,3.1,0,0,1-.5,1.75,3.22,3.22,0,0,1-1.44,1.19,5.45,5.45,0,0,1-2.22.42,8.76,8.76,0,0,1-1.77-.15,6.64,6.64,0,0,1-1.5-.51v-2.56a8.89,8.89,0,0,0,1.71.66,6.81,6.81,0,0,0,1.62.23,1.55,1.55,0,0,0,.94-.22.68.68,0,0,0,.3-.57.64.64,0,0,0-.12-.38,1.37,1.37,0,0,0-.39-.33,15.21,15.21,0,0,0-1.41-.68,7.19,7.19,0,0,1-1.56-.92,2.8,2.8,0,0,1-.77-1,3.49,3.49,0,0,1-.25-1.36,2.71,2.71,0,0,1,1.07-2.28,4.7,4.7,0,0,1,2.93-.82,8.13,8.13,0,0,1,3.36.76l-.88,2.21a6.54,6.54,0,0,0-2.56-.68,1.25,1.25,0,0,0-.82.2.58.58,0,0,0-.25.48.7.7,0,0,0,.32.56,14.45,14.45,0,0,0,1.75.9,4.87,4.87,0,0,1,1.91,1.32A3,3,0,0,1,345.09,146.05Z"/><path class="cls-7" d="M355.75,138.66V145a4.25,4.25,0,0,1-1.18,3.23,5.6,5.6,0,0,1-6.73,0,4.19,4.19,0,0,1-1.17-3.19v-6.45h2.89v6.22a2.56,2.56,0,0,0,.42,1.64,1.8,1.8,0,0,0,2.51,0,2.8,2.8,0,0,0,.4-1.65v-6.21Z"/><path class="cls-7" d="M358,138.66h3.7a6.34,6.34,0,0,1,3.21.64,2.17,2.17,0,0,1,1,2,2.44,2.44,0,0,1-.46,1.52,2,2,0,0,1-1.2.82v.07a2.44,2.44,0,0,1,1.43.87,2.69,2.69,0,0,1,.44,1.58,2.75,2.75,0,0,1-1.08,2.28,4.79,4.79,0,0,1-3,.83H358Zm2.87,4.07h.86a1.61,1.61,0,0,0,1-.25.9.9,0,0,0,.34-.76c0-.59-.45-.89-1.35-.89h-.8Zm0,2.1v2.22h1c.89,0,1.34-.37,1.34-1.13a1,1,0,0,0-.36-.81,1.62,1.62,0,0,0-1-.28Z"/><path class="cls-7" d="M374.93,146.05a3.18,3.18,0,0,1-.5,1.75A3.27,3.27,0,0,1,373,149a5.45,5.45,0,0,1-2.22.42,8.76,8.76,0,0,1-1.77-.15,6.64,6.64,0,0,1-1.5-.51V146.2a8.89,8.89,0,0,0,1.71.66,6.81,6.81,0,0,0,1.62.23,1.55,1.55,0,0,0,.94-.22.68.68,0,0,0,.3-.57.64.64,0,0,0-.12-.38,1.37,1.37,0,0,0-.39-.33c-.18-.11-.65-.34-1.41-.68a7.19,7.19,0,0,1-1.56-.92,2.8,2.8,0,0,1-.77-1,3.49,3.49,0,0,1-.25-1.36,2.71,2.71,0,0,1,1.07-2.28,4.7,4.7,0,0,1,2.93-.82,8.13,8.13,0,0,1,3.36.76l-.88,2.21a6.42,6.42,0,0,0-2.57-.68,1.23,1.23,0,0,0-.81.2.58.58,0,0,0-.25.48.7.7,0,0,0,.32.56,14.45,14.45,0,0,0,1.75.9,4.87,4.87,0,0,1,1.91,1.32A3,3,0,0,1,374.93,146.05Z"/><path class="cls-7" d="M381.3,140.86a1.84,1.84,0,0,0-1.6.84,4,4,0,0,0-.57,2.31c0,2,.77,3.06,2.33,3.06a4.81,4.81,0,0,0,1.36-.2,12.34,12.34,0,0,0,1.33-.47v2.43a7.36,7.36,0,0,1-3,.58,4.77,4.77,0,0,1-3.68-1.39,5.8,5.8,0,0,1-1.28-4,6.4,6.4,0,0,1,.62-2.89,4.32,4.32,0,0,1,1.79-1.92,5.42,5.42,0,0,1,2.73-.67,7.64,7.64,0,0,1,3.29.74l-.88,2.26a9.79,9.79,0,0,0-1.17-.46A3.94,3.94,0,0,0,381.3,140.86Z"/><path class="cls-7" d="M389.08,145.41v3.86h-2.86V138.66h3.47c2.88,0,4.33,1,4.33,3.13a3.15,3.15,0,0,1-1.8,2.86l3.09,4.62h-3.25l-2.25-3.86Zm0-2.16h.54c1,0,1.5-.44,1.5-1.33,0-.73-.49-1.09-1.47-1.09h-.57Z"/><path class="cls-7" d="M396.27,149.27V138.66h2.88v10.61Z"/><path class="cls-7" d="M401.45,138.66h3.7a6.34,6.34,0,0,1,3.21.64,2.17,2.17,0,0,1,1.05,2,2.44,2.44,0,0,1-.46,1.52,2.06,2.06,0,0,1-1.2.82v.07a2.44,2.44,0,0,1,1.43.87,2.69,2.69,0,0,1,.44,1.58,2.71,2.71,0,0,1-1.09,2.28,4.75,4.75,0,0,1-2.95.83h-4.13Zm2.86,4.07h.87a1.58,1.58,0,0,0,.95-.25.9.9,0,0,0,.34-.76c0-.59-.45-.89-1.35-.89h-.81Zm0,2.1v2.22h1c.9,0,1.34-.37,1.34-1.13a1,1,0,0,0-.35-.81,1.64,1.64,0,0,0-1.05-.28Z"/><path class="cls-7" d="M417.76,149.27h-6.3V138.66h6.3V141h-3.43v1.67h3.18V145h-3.18v2h3.43Z"/><rect class="cls-2" x="446.48" y="65.92" width="63.31" height="106.4"/><path class="cls-6" d="M501.58,152.91H454.7a14.92,14.92,0,1,1-.77-29.83c.26,0,.51,0,.77,0h46.88a14.92,14.92,0,0,1,0,29.83Z"/><rect class="cls-15" x="456.96" y="77.48" width="42.36" height="5.32"/><rect class="cls-7" x="456.96" y="91.09" width="42.36" height="24.9"/><rect class="cls-2" x="245.63" y="65.92" width="63.31" height="106.4"/><path class="cls-6" d="M300.73,152.91H253.84a14.92,14.92,0,0,1,0-29.83h46.89a14.92,14.92,0,0,1,0,29.83Z"/><rect class="cls-15" x="256.11" y="77.48" width="42.36" height="5.32"/><rect class="cls-7" x="256.11" y="91.09" width="42.36" height="24.9"/><g class="cls-20"><path class="cls-10" d="M184.21,388.28l14,27.38h86.63l-41.39-94.17L134.73,299.58c-32.5,26.4-22.61,116.08-22.61,116.08h72.09Z"/><path class="cls-4" d="M231.52,147.21C230,134.84,228,127.77,222,123.12c-8.08-6.24-18.91-3.21-20-2.88-.72.21-11.12,2.62-15,12.64s-2.28,21.48,4.52,29.5l-5.1,22.88a13.63,13.63,0,0,0,10.32,16.27h0l1.66.37a13.63,13.63,0,0,0,16.27-10.33L218,176.28c4.75.65,8.74.12,10.74-1.91C232.37,170.73,233.33,161.78,231.52,147.21Z"/><path class="cls-10" d="M218.33,176.6h-.12a.62.62,0,0,1-.5-.74h0l1.1-5.63a.65.65,0,0,1,.75-.5.64.64,0,0,1,.49.75h0L219,176.09A.64.64,0,0,1,218.33,176.6Z"/><path class="cls-10" d="M214.43,158.17a.63.63,0,0,1-.55-.32c-.48-.84-.9-1.61-1.35-2.41l-1.15-2.08a.62.62,0,0,1,.23-.86h0a.65.65,0,0,1,.87.24l1.16,2.1,1.33,2.39a.64.64,0,0,1-.25.87A.61.61,0,0,1,214.43,158.17Z"/><path class="cls-10" d="M171.54,134.72a11.31,11.31,0,0,1,11.3-11.32h0A9.72,9.72,0,0,1,195,110.15a9.72,9.72,0,0,1,17-5.83,11.35,11.35,0,0,1,20.88,5.53h.87a9.74,9.74,0,0,1,0,19.48h-.46c-.74,9.48-10.8,10.54-11.39,10.69q1.67,6.53,3.32,13.06c-1.66.46-3.65,1.12-5.31,1.58-.93-4.57-2.72-6.36-5.26-6.83-4-.73-7.78,2.91-8.18,6.84a9.46,9.46,0,0,0,4.3,9.38q-6.1.09-12.75-.19c-2.31-.11-4.56-.25-6.77-.42-1.33-.89-9.89-6.8-11.52-17.8A11.31,11.31,0,0,1,171.54,134.72Z"/><path class="cls-4" d="M277.87,214.35c51.06,15.64,77.18,41.11,67.4,59.57-6.31,11.88-36.16,14.43-77.11,4.29C270.63,261,274.43,235.12,277.87,214.35Z"/><path class="cls-4" d="M310.2,233.75s25.39-37.87,40.27-57c15.62-20.08,41.61-47.45,45.39-43.77,2.16,2.1-.62,6.57-8.82,18a6.23,6.23,0,0,1,5.63,2.19,5.93,5.93,0,0,1,.41,6.62c.34-.08,3.94-.87,6,1.1a6.58,6.58,0,0,1,1.62,7.34c.83-.18,4-.54,5.87,1.42s2.56,5.53.72,7.82c-3.36,4.19-13.6,16.47-17.85,23-8.37,13-31.93,62.93-49,78.45C332.66,260.62,310.2,233.75,310.2,233.75Z"/><path class="cls-10" d="M401.34,180.89a.63.63,0,0,1-.46-.2l-3.16-3.26a.64.64,0,0,1,.89-.91h0l3.16,3.27a.63.63,0,0,1,0,.89h0A.61.61,0,0,1,401.34,180.89Z"/><path class="cls-10" d="M393.57,173.15a.64.64,0,0,1-.47-.21l-3.45-3.81a.63.63,0,0,1,0-.89h0a.64.64,0,0,1,.9.05l3.45,3.8a.64.64,0,0,1-.47,1.07Z"/><path class="cls-10" d="M386,164.45a.64.64,0,0,1-.45-.19c-.6-.61-1.13-1.17-1.67-1.73s-1-1.1-1.63-1.7a.64.64,0,0,1,.89-.91h0l1.64,1.71,1.65,1.73a.63.63,0,0,1,0,.89h0A.67.67,0,0,1,386,164.45Z"/><path class="cls-10" d="M379,157.91a.63.63,0,0,1-.42-.16l-3.37-3a.64.64,0,0,1,.85-.95l3.37,3a.63.63,0,0,1,0,.9A.64.64,0,0,1,379,157.91Z"/><path class="cls-4" d="M87.23,303c48.22,9.89,79.41,17.22,90,19.26a19.49,19.49,0,0,0,5.65.39c9.58-.76,12.42-8.44,22.13-13.84,11-6.13,20.68-3.34,21.29-6.5.43-2.2-2.92-4.27-10.75-5.68h0c6.07.38,14.32.54,14.52-2.81,0-3.88-9.65-5.21-15.53-5.72,7.12.62,11.1-1.18,10.75-3.08-.56-3-6-4.75-15.43-5.21h0c6.62-1.51,8-2.86,7.27-4.46-1.31-2.92-9.09-3.15-16-2.3a40,40,0,0,0-17,6.65h0c-33-10.43-55-17.12-81.48-26.09C97.22,251.74,87.23,303,87.23,303Z"/><path class="cls-4" d="M114.28,200.89c-54.07,42-49,93.56-28.28,101.72,11.76,4.62,42.25-22.42,68.81-68.39C139.88,223.33,132.67,213.61,114.28,200.89Z"/><path class="cls-11" d="M77.41,230s36.41-54,120.25-45c51.59,5.56,113.89,41.44,113.89,41.44l-21.38,65.37-21.33-6.33-7,52.51L108,311.8l6.56-43.44Z"/><path class="cls-10" d="M268.84,286.12h-.22l-12.93-4.9a.63.63,0,0,1-.37-.81h0a.64.64,0,0,1,.82-.37l12.93,4.9a.61.61,0,0,1-.23,1.19Z"/></g></svg>